<svg id="Capa_1" enable-background="new 0 0 512 512" height="512" viewBox="0 0 512 512" width="512" xmlns="http://www.w3.org/2000/svg"><g><g><g><path d="m395.203 462.769h30.001v44.996h-30.001z" fill="#3d4866" transform="matrix(.906 -.423 .423 .906 -166.634 218.791)"/></g></g><g><g><path d="m79.298 470.266h44.996v30.001h-44.996z" fill="#4d5980" transform="matrix(.423 -.906 .906 .423 -380.999 372.329)"/></g></g><path d="m363.402 339.734c-33.589-5.132-70.481-7.63-107.402-7.635-35.266-.004-70.562 2.26-102.979 6.976-45.703 6.621-153.021 27.964-153.021 82.925 0 12.876 6.533 31.89 37.632 49.409l14.736-26.133c-14.004-7.895-22.368-16.596-22.368-23.276 0-13.506 35.292-39.902 127.328-53.247 31.002-4.481 64.852-6.638 98.672-6.638 35.405.002 70.779 2.375 102.876 7.267 88.975 13.565 123.124 39.478 123.124 52.618 0 6.68-8.364 15.381-22.368 23.276l14.736 26.133c31.099-17.519 37.632-36.533 37.632-49.409 0-53.95-104.228-75.498-148.598-82.266z" fill="#dfe7f4"/><path d="m358.876 369.383c88.975 13.564 123.124 39.477 123.124 52.617 0 6.68-8.364 15.381-22.368 23.276l14.736 26.133c31.099-17.519 37.632-36.533 37.632-49.409 0-53.95-104.228-75.498-148.598-82.266-33.589-5.132-70.481-7.63-107.402-7.635v30.016c35.405.002 70.779 2.375 102.876 7.268z" fill="#c7cfe1"/><path d="m256 0c-24.814 0-45 20.186-45 45v69.027h45 45v-69.027c0-24.814-20.186-45-45-45z" fill="#4d5980"/><path d="m301 45c0-24.814-20.186-45-45-45v114.027h45z" fill="#3d4866"/><g><g><path d="m368.324 466.575-126.797-272.919 48.062-38.892 133.11 286.454c6.931 14.818.727 32.726-14.487 39.873-15.291 7.088-33.016.233-39.888-14.516z" fill="#ff4d4d"/></g></g><g><g><path d="m103.803 481.092c-15.026-7.044-21.526-24.841-14.502-39.888l134.063-288.52 58.228 17.109-137.916 296.782c-6.859 14.72-24.601 21.621-39.873 14.517z" fill="#ff8080"/></g></g><circle cx="256" cy="166" fill="#f0f7ff" r="75"/><path d="m331 166c0-41.353-33.647-75-75-75v150c41.353 0 75-33.647 75-75z" fill="#c7cfe1"/><g><path d="m241 151h30v30h-30z"/></g><path d="m256 151h-15v30h15 15v-30z" fill="#575f64"/><path d="m256 151h15v30h-15z" fill="#4d5980"/></g></svg>